<svg width="34" height="34" viewBox="0 0 34 34" fill="none" xmlns="http://www.w3.org/2000/svg">
<circle cx="17" cy="17" r="17" fill="#4D77FF" fill-opacity="0.15"/>
<path d="M16.9998 25.9584C12.0582 25.9584 8.0415 21.9417 8.0415 17C8.0415 12.0584 12.0582 8.04169 16.9998 8.04169C21.9415 8.04169 25.9582 12.0584 25.9582 17C25.9582 21.9417 21.9415 25.9584 16.9998 25.9584ZM16.9998 9.29169C12.7498 9.29169 9.2915 12.75 9.2915 17C9.2915 21.25 12.7498 24.7084 16.9998 24.7084C21.2498 24.7084 24.7082 21.25 24.7082 17C24.7082 12.75 21.2498 9.29169 16.9998 9.29169Z" fill="#4D77FF"/>
<path d="M16.9999 21.5584C15.8332 21.5584 14.6665 21.1168 13.7749 20.2251C13.5415 19.9918 13.3332 19.7334 13.1415 19.4251C12.9582 19.1334 13.0499 18.7501 13.3415 18.5668C13.6332 18.3834 14.0165 18.4751 14.1999 18.7668C14.3415 19.0001 14.4915 19.1834 14.6582 19.3501C15.9499 20.6418 18.0499 20.6418 19.3415 19.3501C19.8415 18.8501 20.1582 18.2001 20.2665 17.4751C20.3165 17.1334 20.6332 16.8834 20.9749 16.9418C21.3165 16.9918 21.5499 17.3085 21.5082 17.6501C21.3665 18.6418 20.9249 19.5334 20.2332 20.2334C19.3332 21.1168 18.1665 21.5584 16.9999 21.5584Z" fill="#4D77FF"/>
<path d="M13.1164 17.0668C13.0831 17.0668 13.0581 17.0667 13.0248 17.0584C12.6831 17.0084 12.4414 16.6917 12.4914 16.35C12.6331 15.3584 13.0748 14.4667 13.7664 13.7667C15.5414 11.9917 18.4331 11.9917 20.2164 13.7667C20.4497 14.0001 20.6581 14.2584 20.8498 14.5751C21.0331 14.8668 20.9414 15.2501 20.6498 15.4334C20.3581 15.6167 19.9748 15.5251 19.7914 15.2334C19.6498 15.0084 19.4997 14.8167 19.3331 14.6501C18.0414 13.3584 15.9414 13.3584 14.6497 14.6501C14.1497 15.1501 13.8331 15.8001 13.7248 16.5251C13.6914 16.8417 13.4248 17.0668 13.1164 17.0668Z" fill="#4D77FF"/>
<path d="M13.5171 21.9417C13.1754 21.9417 12.8921 21.6583 12.8921 21.3167V19.0917C12.8921 18.75 13.1754 18.4667 13.5171 18.4667H15.7421C16.0837 18.4667 16.3671 18.75 16.3671 19.0917C16.3671 19.4333 16.0837 19.7167 15.7421 19.7167H14.1421V21.3167C14.1421 21.6583 13.8671 21.9417 13.5171 21.9417Z" fill="#4D77FF"/>
<path d="M20.4833 15.5334H18.2583C17.9166 15.5334 17.6333 15.2501 17.6333 14.9084C17.6333 14.5667 17.9166 14.2834 18.2583 14.2834H19.8583V12.6834C19.8583 12.3417 20.1416 12.0584 20.4833 12.0584C20.825 12.0584 21.1083 12.3417 21.1083 12.6834V14.9084C21.1083 15.2584 20.825 15.5334 20.4833 15.5334Z" fill="#4D77FF"/>
</svg>
