<svg width="16" height="16" viewBox="0 0 16 16" fill="none" xmlns="http://www.w3.org/2000/svg">
<path d="M12.9465 7.83333H10.6665C10.3932 7.83333 10.1665 7.60666 10.1665 7.33333V2.67333C10.1665 2.17999 10.3598 1.72 10.7065 1.37333C11.0532 1.02666 11.5132 0.833328 12.0065 0.833328H12.0132C12.8465 0.839995 13.6332 1.16666 14.2332 1.75999C14.8332 2.36666 15.1598 3.16666 15.1598 3.99999V5.61333C15.1665 6.93999 14.2732 7.83333 12.9465 7.83333ZM11.1665 6.83333H12.9465C13.7198 6.83333 14.1665 6.38666 14.1665 5.61333V3.99999C14.1665 3.42666 13.9398 2.88 13.5332 2.46666C13.1265 2.06666 12.5798 1.83999 12.0132 1.83333C12.0132 1.83333 12.0132 1.83333 12.0065 1.83333C11.7865 1.83333 11.5732 1.91999 11.4132 2.07999C11.2532 2.23999 11.1665 2.44666 11.1665 2.67333V6.83333Z" fill="#475467"/>
<path d="M6.00016 15.5533C5.68683 15.5533 5.3935 15.4333 5.1735 15.2067L4.06683 14.0933C4.00683 14.0333 3.9135 14.0267 3.84683 14.08L2.70016 14.9333C2.34683 15.2 1.88016 15.2467 1.48016 15.0467C1.08016 14.8467 0.833496 14.4467 0.833496 14V3.99999C0.833496 1.98666 1.98683 0.833328 4.00016 0.833328H12.0002C12.2735 0.833328 12.5002 1.05999 12.5002 1.33333C12.5002 1.60666 12.2735 1.83333 12.0002 1.83333C11.5402 1.83333 11.1668 2.20666 11.1668 2.66666V14C11.1668 14.4467 10.9202 14.8467 10.5202 15.0467C10.1202 15.2467 9.6535 15.2067 9.30016 14.94L8.16016 14.0867C8.0935 14.0333 8.00016 14.0467 7.94683 14.1L6.82683 15.22C6.60683 15.4333 6.3135 15.5533 6.00016 15.5533ZM3.94016 13.0467C4.24683 13.0467 4.54683 13.16 4.7735 13.3933L5.88016 14.5067C5.92016 14.5467 5.9735 14.5533 6.00016 14.5533C6.02683 14.5533 6.08016 14.5467 6.12016 14.5067L7.24016 13.3867C7.6535 12.9733 8.30683 12.9333 8.76683 13.2867L9.90016 14.1333C9.9735 14.1867 10.0402 14.1667 10.0735 14.1467C10.1068 14.1267 10.1668 14.0867 10.1668 14V2.66666C10.1668 2.36666 10.2402 2.07999 10.3668 1.83333H4.00016C2.52016 1.83333 1.8335 2.51999 1.8335 3.99999V14C1.8335 14.0933 1.8935 14.1333 1.92683 14.1533C1.96683 14.1733 2.0335 14.1867 2.10016 14.1333L3.24016 13.28C3.44683 13.1267 3.6935 13.0467 3.94016 13.0467Z" fill="#475467"/>
<path d="M8 9.17334H6C5.72667 9.17334 5.5 8.94667 5.5 8.67334C5.5 8.40001 5.72667 8.17334 6 8.17334H8C8.27333 8.17334 8.5 8.40001 8.5 8.67334C8.5 8.94667 8.27333 9.17334 8 9.17334Z" fill="#475467"/>
<path d="M8 6.50667H6C5.72667 6.50667 5.5 6.28 5.5 6.00667C5.5 5.73333 5.72667 5.50667 6 5.50667H8C8.27333 5.50667 8.5 5.73333 8.5 6.00667C8.5 6.28 8.27333 6.50667 8 6.50667Z" fill="#475467"/>
<path d="M3.98014 6.67335C3.61348 6.67335 3.31348 6.37335 3.31348 6.00668C3.31348 5.64001 3.61348 5.34001 3.98014 5.34001C4.34681 5.34001 4.64681 5.64001 4.64681 6.00668C4.64681 6.37335 4.34681 6.67335 3.98014 6.67335Z" fill="#475467"/>
<path d="M3.98014 9.34C3.61348 9.34 3.31348 9.04 3.31348 8.67334C3.31348 8.30667 3.61348 8.00667 3.98014 8.00667C4.34681 8.00667 4.64681 8.30667 4.64681 8.67334C4.64681 9.04 4.34681 9.34 3.98014 9.34Z" fill="#475467"/>
</svg>
