<svg width="20" height="20" viewBox="0 0 20 20" fill="none" xmlns="http://www.w3.org/2000/svg">
<path d="M14.8248 18.9583H5.17484C2.8915 18.9583 1.0415 17.0999 1.0415 14.8166V8.6416C1.0415 7.50827 1.7415 6.08327 2.6415 5.38327L7.13317 1.88327C8.48317 0.833271 10.6415 0.783271 12.0415 1.7666L17.1915 5.37494C18.1832 6.0666 18.9582 7.54994 18.9582 8.75827V14.8249C18.9582 17.0999 17.1082 18.9583 14.8248 18.9583ZM7.89984 2.8666L3.40817 6.3666C2.8165 6.83327 2.2915 7.8916 2.2915 8.6416V14.8166C2.2915 16.4083 3.58317 17.7083 5.17484 17.7083H14.8248C16.4165 17.7083 17.7082 16.4166 17.7082 14.8249V8.75827C17.7082 7.95827 17.1332 6.84994 16.4748 6.39994L11.3248 2.7916C10.3748 2.12494 8.80817 2.15827 7.89984 2.8666Z" fill="#344054"/>
<path d="M10 15.625C9.65833 15.625 9.375 15.3417 9.375 15V12.5C9.375 12.1583 9.65833 11.875 10 11.875C10.3417 11.875 10.625 12.1583 10.625 12.5V15C10.625 15.3417 10.3417 15.625 10 15.625Z" fill="#344054"/>
</svg>
