<svg width="28" height="28" viewBox="0 0 28 28" fill="none" xmlns="http://www.w3.org/2000/svg">
<circle cx="14" cy="14" r="14" fill="#EAECF0"/>
<path d="M18 13.1667C17.7267 13.1667 17.5 12.94 17.5 12.6667V11.3334C17.5 9.23337 16.9067 7.83337 14 7.83337C11.0933 7.83337 10.5 9.23337 10.5 11.3334V12.6667C10.5 12.94 10.2733 13.1667 10 13.1667C9.72667 13.1667 9.5 12.94 9.5 12.6667V11.3334C9.5 9.40004 9.96667 6.83337 14 6.83337C18.0333 6.83337 18.5 9.40004 18.5 11.3334V12.6667C18.5 12.94 18.2733 13.1667 18 13.1667Z" fill="#344054"/>
<path d="M17.3335 21.1666H10.6668C7.72683 21.1666 6.8335 20.2733 6.8335 17.3333V16C6.8335 13.06 7.72683 12.1666 10.6668 12.1666H17.3335C20.2735 12.1666 21.1668 13.06 21.1668 16V17.3333C21.1668 20.2733 20.2735 21.1666 17.3335 21.1666ZM10.6668 13.1666C8.28016 13.1666 7.8335 13.62 7.8335 16V17.3333C7.8335 19.7133 8.28016 20.1666 10.6668 20.1666H17.3335C19.7202 20.1666 20.1668 19.7133 20.1668 17.3333V16C20.1668 13.62 19.7202 13.1666 17.3335 13.1666H10.6668Z" fill="#344054"/>
<path d="M11.3332 17.3333C11.2465 17.3333 11.1598 17.3133 11.0798 17.28C10.9932 17.2467 10.9265 17.2 10.8598 17.14C10.7398 17.0133 10.6665 16.8467 10.6665 16.6667C10.6665 16.58 10.6865 16.4933 10.7198 16.4133C10.7532 16.3267 10.7998 16.26 10.8598 16.1933C10.9265 16.1333 10.9932 16.0867 11.0798 16.0533C11.3198 15.9467 11.6198 16.0067 11.8065 16.1933C11.8665 16.26 11.9132 16.3333 11.9465 16.4133C11.9798 16.4933 11.9998 16.58 11.9998 16.6667C11.9998 16.84 11.9265 17.0133 11.8065 17.14C11.6798 17.26 11.5065 17.3333 11.3332 17.3333Z" fill="#344054"/>
<path d="M14.0002 17.3333C13.8268 17.3333 13.6535 17.26 13.5268 17.14C13.4068 17.0133 13.3335 16.8466 13.3335 16.6666C13.3335 16.58 13.3468 16.4933 13.3868 16.4133C13.4202 16.3333 13.4668 16.26 13.5268 16.1933C13.6802 16.04 13.9135 15.9666 14.1268 16.0133C14.1735 16.02 14.2135 16.0333 14.2535 16.0533C14.2935 16.0666 14.3335 16.0867 14.3735 16.1133C14.4068 16.1333 14.4402 16.1667 14.4735 16.1933C14.5335 16.26 14.5802 16.3333 14.6135 16.4133C14.6468 16.4933 14.6668 16.58 14.6668 16.6666C14.6668 16.8466 14.5935 17.0133 14.4735 17.14C14.4402 17.1666 14.4068 17.1933 14.3735 17.22C14.3335 17.2466 14.2935 17.2667 14.2535 17.28C14.2135 17.3 14.1735 17.3133 14.1268 17.32C14.0868 17.3267 14.0402 17.3333 14.0002 17.3333Z" fill="#344054"/>
<path d="M16.6667 17.3333C16.4867 17.3333 16.32 17.26 16.1933 17.14C16.1333 17.0733 16.0867 17 16.0533 16.92C16.02 16.84 16 16.7533 16 16.6666C16 16.4933 16.0733 16.32 16.1933 16.1933C16.2267 16.1667 16.26 16.14 16.2933 16.1133C16.3333 16.0867 16.3733 16.0666 16.4133 16.0533C16.4533 16.0333 16.4933 16.02 16.5333 16.0133C16.7533 15.9666 16.98 16.04 17.14 16.1933C17.26 16.32 17.3333 16.4866 17.3333 16.6666C17.3333 16.7533 17.3133 16.84 17.28 16.92C17.2467 17.0067 17.2 17.0733 17.14 17.14C17.0133 17.26 16.84 17.3333 16.6667 17.3333Z" fill="#344054"/>
</svg>
