<svg width="28" height="28" viewBox="0 0 28 28" fill="none" xmlns="http://www.w3.org/2000/svg">
<circle cx="14" cy="14" r="14" fill="#EAECF0"/>
<path d="M16.1602 20.8467H16.0735C13.1135 20.8467 11.6868 19.68 11.4402 17.0667C11.4135 16.7933 11.6135 16.5467 11.8935 16.52C12.1602 16.4933 12.4135 16.7 12.4402 16.9733C12.6335 19.0667 13.6202 19.8467 16.0802 19.8467H16.1668C18.8802 19.8467 19.8402 18.8867 19.8402 16.1733V11.8267C19.8402 9.11332 18.8802 8.15332 16.1668 8.15332H16.0802C13.6068 8.15332 12.6202 8.94665 12.4402 11.08C12.4068 11.3533 12.1735 11.56 11.8935 11.5333C11.6135 11.5133 11.4135 11.2667 11.4335 10.9933C11.6602 8.33999 13.0935 7.15332 16.0735 7.15332H16.1602C19.4335 7.15332 20.8335 8.55332 20.8335 11.8267V16.1733C20.8335 19.4467 19.4335 20.8467 16.1602 20.8467Z" fill="#344054"/>
<path d="M16.0002 14.5H8.41357C8.14024 14.5 7.91357 14.2733 7.91357 14C7.91357 13.7267 8.14024 13.5 8.41357 13.5H16.0002C16.2736 13.5 16.5002 13.7267 16.5002 14C16.5002 14.2733 16.2736 14.5 16.0002 14.5Z" fill="#344054"/>
<path d="M9.90012 16.7333C9.77346 16.7333 9.64679 16.6866 9.54679 16.5866L7.31346 14.3533C7.12012 14.16 7.12012 13.84 7.31346 13.6466L9.54679 11.4133C9.74012 11.22 10.0601 11.22 10.2535 11.4133C10.4468 11.6066 10.4468 11.9266 10.2535 12.12L8.37346 14L10.2535 15.88C10.4468 16.0733 10.4468 16.3933 10.2535 16.5866C10.1601 16.6866 10.0268 16.7333 9.90012 16.7333Z" fill="#344054"/>
</svg>
