<svg width="28" height="28" viewBox="0 0 28 28" fill="none" xmlns="http://www.w3.org/2000/svg">
<circle cx="14" cy="14" r="14" fill="#EAECF0"/>
<path d="M17.2668 18.6733C17.0602 18.6733 16.8535 18.6133 16.6735 18.4933L16.0335 18.0733C15.8535 17.9533 15.7668 17.7266 15.8268 17.52C15.8735 17.3666 15.8935 17.1866 15.8935 16.9866V14.2733C15.8935 13.1866 15.2135 12.5066 14.1268 12.5066H9.60016C9.52016 12.5066 9.44683 12.5133 9.37349 12.52C9.23349 12.5266 9.10017 12.48 8.9935 12.3866C8.88683 12.2933 8.8335 12.16 8.8335 12.02V10.1733C8.8335 8.2133 10.2068 6.83997 12.1668 6.83997H17.8335C19.7935 6.83997 21.1668 8.2133 21.1668 10.1733V13.5733C21.1668 14.5399 20.8402 15.3933 20.2402 15.9799C19.7602 16.4666 19.0935 16.78 18.3335 16.8733V17.6133C18.3335 18.0133 18.1135 18.3733 17.7668 18.56C17.6068 18.6333 17.4335 18.6733 17.2668 18.6733ZM16.8668 17.42L17.3002 17.6666C17.3402 17.6466 17.3402 17.6133 17.3402 17.6066V16.3999C17.3402 16.1266 17.5668 15.8999 17.8402 15.8999C18.5402 15.8999 19.1335 15.68 19.5402 15.2666C19.9602 14.8533 20.1735 14.2666 20.1735 13.5666V10.1666C20.1735 8.74663 19.2602 7.83329 17.8402 7.83329H12.1735C10.7535 7.83329 9.84016 8.74663 9.84016 10.1666V11.5H14.1335C15.7602 11.5 16.9002 12.64 16.9002 14.2666V16.9799C16.8935 17.1333 16.8868 17.28 16.8668 17.42Z" fill="#344054"/>
<path d="M10.0468 21.1667C9.90017 21.1667 9.74683 21.1334 9.60683 21.06C9.2935 20.8934 9.10016 20.5733 9.10016 20.2133V19.7067C8.51349 19.6133 7.9935 19.3666 7.60683 18.98C7.10017 18.4733 6.8335 17.78 6.8335 16.98V14.2667C6.8335 12.76 7.82016 11.6533 9.28682 11.5133C9.39349 11.5067 9.49349 11.5 9.60016 11.5H14.1268C15.7535 11.5 16.8935 12.64 16.8935 14.2667V16.98C16.8935 17.2733 16.8602 17.5467 16.7868 17.7933C16.4868 18.9933 15.4668 19.7467 14.1268 19.7467H12.4668L10.5802 21C10.4202 21.1133 10.2335 21.1667 10.0468 21.1667ZM9.60016 12.5C9.52016 12.5 9.44683 12.5067 9.37349 12.5133C8.41349 12.6 7.8335 13.26 7.8335 14.2667V16.98C7.8335 17.5133 8.00016 17.96 8.3135 18.2733C8.62016 18.58 9.06683 18.7467 9.60016 18.7467C9.87349 18.7467 10.1002 18.9733 10.1002 19.2467V20.12L12.0335 18.8333C12.1135 18.78 12.2135 18.7467 12.3135 18.7467H14.1268C15.0068 18.7467 15.6268 18.3067 15.8202 17.5333C15.8668 17.3667 15.8935 17.18 15.8935 16.98V14.2667C15.8935 13.18 15.2135 12.5 14.1268 12.5H9.60016Z" fill="#344054"/>
</svg>
