<svg width="21" height="20" viewBox="0 0 21 20" fill="none" xmlns="http://www.w3.org/2000/svg">
<path d="M13.7334 18.9583H7.06673C4.55007 18.9583 3.1084 17.5166 3.1084 15V6.87496C3.1084 4.24996 4.44173 2.91663 7.06673 2.91663C7.4084 2.91663 7.69173 3.19996 7.69173 3.54163C7.69173 3.87496 7.82507 4.19162 8.0584 4.42496C8.29173 4.65829 8.6084 4.79163 8.94173 4.79163H11.8584C12.5501 4.79163 13.1084 4.23329 13.1084 3.54163C13.1084 3.19996 13.3917 2.91663 13.7334 2.91663C16.3584 2.91663 17.6917 4.24996 17.6917 6.87496V15C17.6917 17.5166 16.2501 18.9583 13.7334 18.9583ZM6.52504 4.1833C5.20838 4.29163 4.3584 4.88329 4.3584 6.87496V15C4.3584 16.85 5.21673 17.7083 7.06673 17.7083H13.7334C15.5834 17.7083 16.4417 16.85 16.4417 15V6.87496C16.4417 4.88329 15.5918 4.29996 14.2751 4.1833C13.9918 5.24996 13.0167 6.04163 11.8584 6.04163H8.94173C8.27506 6.04163 7.65007 5.78329 7.17507 5.30829C6.8584 4.99162 6.64171 4.6083 6.52504 4.1833Z" fill="#344054"/>
<path d="M11.8586 6.04163H8.94189C8.27523 6.04163 7.65023 5.78329 7.17523 5.30829C6.70023 4.83329 6.44189 4.20829 6.44189 3.54163C6.44189 2.16663 7.56689 1.04163 8.94189 1.04163H11.8586C12.5252 1.04163 13.1502 1.29996 13.6252 1.77496C14.1002 2.24996 14.3586 2.87496 14.3586 3.54163C14.3586 4.91663 13.2336 6.04163 11.8586 6.04163ZM8.94189 2.29163C8.25023 2.29163 7.69189 2.84996 7.69189 3.54163C7.69189 3.87496 7.82523 4.19162 8.05856 4.42496C8.2919 4.65829 8.60856 4.79163 8.94189 4.79163H11.8586C12.5502 4.79163 13.1086 4.23329 13.1086 3.54163C13.1086 3.20829 12.9752 2.89163 12.7419 2.65829C12.5086 2.42496 12.1919 2.29163 11.8586 2.29163H8.94189Z" fill="#344054"/>
<path d="M10.4002 11.4583H7.06689C6.72523 11.4583 6.44189 11.1749 6.44189 10.8333C6.44189 10.4916 6.72523 10.2083 7.06689 10.2083H10.4002C10.7419 10.2083 11.0252 10.4916 11.0252 10.8333C11.0252 11.1749 10.7419 11.4583 10.4002 11.4583Z" fill="#344054"/>
<path d="M13.7336 14.7916H7.06689C6.72523 14.7916 6.44189 14.5083 6.44189 14.1666C6.44189 13.825 6.72523 13.5416 7.06689 13.5416H13.7336C14.0752 13.5416 14.3586 13.825 14.3586 14.1666C14.3586 14.5083 14.0752 14.7916 13.7336 14.7916Z" fill="#344054"/>
</svg>
