<svg width="34" height="34" viewBox="0 0 34 34" fill="none" xmlns="http://www.w3.org/2000/svg">
<circle cx="17" cy="17" r="17" fill="#FFC300" fill-opacity="0.15"/>
<path d="M19.7 25.9584H14.3C12.725 25.9584 11.575 25.3 11.1333 24.1667C10.675 22.9834 11.1 21.5167 12.2 20.525L16.0667 17L12.2 13.475C11.1 12.4834 10.675 11.0167 11.1333 9.83335C11.575 8.69169 12.725 8.04169 14.3 8.04169H19.7C21.275 8.04169 22.425 8.70002 22.8667 9.83335C23.325 11.0167 22.9 12.4834 21.8 13.475L17.9333 17L21.8083 20.525C22.9 21.5167 23.3333 22.9834 22.875 24.1667C22.425 25.3 21.275 25.9584 19.7 25.9584ZM17 17.8417L13.0417 21.4417C12.3417 22.0834 12.0333 23.0167 12.3 23.7084C12.55 24.35 13.2583 24.7084 14.3 24.7084H19.7C20.7417 24.7084 21.45 24.3584 21.7 23.7084C21.9667 23.0167 21.6667 22.0834 20.9583 21.4417L17 17.8417ZM14.3 9.29169C13.2583 9.29169 12.55 9.64169 12.3 10.2917C12.0333 10.9834 12.3333 11.9167 13.0417 12.5584L17 16.1584L20.9583 12.5584C21.6583 11.9167 21.9667 10.9834 21.7 10.2917C21.45 9.65002 20.7417 9.29169 19.7 9.29169H14.3Z" fill="#FFC300"/>
</svg>
