<svg width="16" height="16" viewBox="0 0 16 16" fill="none" xmlns="http://www.w3.org/2000/svg">
<path d="M11.6333 15.1667C10.8799 15.1667 10.0866 14.9867 9.26659 14.64C8.46659 14.3 7.65992 13.8333 6.87325 13.2667C6.09325 12.6933 5.33992 12.0533 4.62659 11.3533C3.91992 10.64 3.27992 9.88666 2.71325 9.11333C2.13992 8.31333 1.67992 7.51333 1.35325 6.73999C1.00659 5.91333 0.833252 5.11333 0.833252 4.35999C0.833252 3.83999 0.926585 3.34666 1.10659 2.88666C1.29325 2.41333 1.59325 1.97333 1.99992 1.59333C2.51325 1.08666 3.09992 0.833328 3.72659 0.833328C3.98659 0.833328 4.25325 0.893328 4.47992 0.999995C4.73992 1.11999 4.95992 1.29999 5.11992 1.53999L6.66659 3.71999C6.80659 3.91333 6.91325 4.09999 6.98659 4.28666C7.07325 4.48666 7.11992 4.68666 7.11992 4.88C7.11992 5.13333 7.04659 5.38 6.90659 5.61333C6.80659 5.79333 6.65325 5.98666 6.45992 6.18L6.00659 6.65333C6.01325 6.67333 6.01992 6.68666 6.02659 6.7C6.10659 6.84 6.26659 7.07999 6.57325 7.44C6.89992 7.81333 7.20659 8.15333 7.51325 8.46666C7.90659 8.85333 8.23325 9.16 8.53992 9.41333C8.91992 9.73333 9.16659 9.89333 9.31325 9.96666L9.29992 10L9.78659 9.51999C9.99325 9.31333 10.1933 9.16 10.3866 9.06C10.7533 8.83333 11.2199 8.79333 11.6866 8.98666C11.8599 9.05999 12.0466 9.16 12.2466 9.3L14.4599 10.8733C14.7066 11.04 14.8866 11.2533 14.9933 11.5067C15.0933 11.76 15.1399 11.9933 15.1399 12.2267C15.1399 12.5467 15.0666 12.8667 14.9266 13.1667C14.7866 13.4667 14.6133 13.7267 14.3933 13.9667C14.0133 14.3867 13.5999 14.6867 13.1199 14.88C12.6599 15.0667 12.1599 15.1667 11.6333 15.1667ZM3.72659 1.83333C3.35992 1.83333 3.01992 1.99333 2.69325 2.31333C2.38659 2.59999 2.17325 2.91333 2.03992 3.25333C1.89992 3.6 1.83325 3.96666 1.83325 4.35999C1.83325 4.98 1.97992 5.65333 2.27325 6.34666C2.57325 7.05333 2.99325 7.78666 3.52659 8.51999C4.05992 9.25333 4.66659 9.96666 5.33325 10.64C5.99992 11.3 6.71992 11.9133 7.45992 12.4533C8.17992 12.98 8.91992 13.4067 9.65325 13.7133C10.7933 14.2 11.8599 14.3133 12.7399 13.9467C13.0799 13.8067 13.3799 13.5933 13.6533 13.2867C13.8066 13.12 13.9266 12.94 14.0266 12.7267C14.1066 12.56 14.1466 12.3867 14.1466 12.2133C14.1466 12.1067 14.1266 12 14.0733 11.88C14.0533 11.84 14.0133 11.7667 13.8866 11.68L11.6733 10.1067C11.5399 10.0133 11.4199 9.94666 11.3066 9.9C11.1599 9.84 11.0999 9.78 10.8733 9.92C10.7399 9.98666 10.6199 10.0867 10.4866 10.22L9.97992 10.72C9.71992 10.9733 9.31992 11.0333 9.01325 10.92L8.83325 10.84C8.55992 10.6933 8.23992 10.4667 7.88659 10.1667C7.56659 9.89333 7.21992 9.57333 6.79992 9.16C6.47325 8.82666 6.14659 8.47333 5.80659 8.08C5.49325 7.71333 5.26659 7.4 5.12659 7.14L5.04659 6.93999C5.00659 6.78666 4.99325 6.69999 4.99325 6.60666C4.99325 6.36666 5.07992 6.15333 5.24659 5.98666L5.74659 5.46666C5.87992 5.33333 5.97992 5.20666 6.04659 5.09333C6.09992 5.00666 6.11992 4.93333 6.11992 4.86666C6.11992 4.81333 6.09992 4.73333 6.06659 4.65333C6.01992 4.54666 5.94659 4.42666 5.85325 4.29999L4.30659 2.11333C4.23992 2.01999 4.15992 1.95333 4.05992 1.90666C3.95325 1.85999 3.83992 1.83333 3.72659 1.83333ZM9.29992 10.0067L9.19325 10.46L9.37325 9.99333C9.33992 9.98666 9.31325 9.99333 9.29992 10.0067Z" fill="#667085"/>
</svg>
