<svg width="34" height="34" viewBox="0 0 34 34" fill="none" xmlns="http://www.w3.org/2000/svg">
<circle opacity="0.15" cx="17" cy="17" r="17" fill="#FF6B2C"/>
<path d="M23.1835 16.7917H20.3335C19.9918 16.7917 19.7085 16.5084 19.7085 16.1667V10.3417C19.7085 9.72502 19.9502 9.15002 20.3835 8.71669C20.8168 8.28335 21.3918 8.04169 22.0085 8.04169H22.0168C23.0585 8.05002 24.0418 8.45835 24.7918 9.20002C25.5418 9.95835 25.9502 10.9584 25.9502 12V14.0167C25.9585 15.675 24.8418 16.7917 23.1835 16.7917ZM20.9585 15.5417H23.1835C24.1502 15.5417 24.7085 14.9834 24.7085 14.0167V12C24.7085 11.2834 24.4252 10.6 23.9168 10.0834C23.4085 9.58335 22.7252 9.30002 22.0168 9.29169C22.0168 9.29169 22.0168 9.29169 22.0085 9.29169C21.7335 9.29169 21.4668 9.40002 21.2668 9.60002C21.0668 9.80002 20.9585 10.0584 20.9585 10.3417V15.5417V15.5417Z" fill="#FF6B2C"/>
<path d="M14.4998 26.4417C14.1082 26.4417 13.7415 26.2917 13.4665 26.0084L12.0832 24.6167C12.0082 24.5417 11.8915 24.5334 11.8082 24.6L10.3748 25.6667C9.93317 26 9.34984 26.0584 8.84984 25.8084C8.34984 25.5584 8.0415 25.0584 8.0415 24.5V12C8.0415 9.48335 9.48317 8.04169 11.9998 8.04169H21.9998C22.3415 8.04169 22.6248 8.32502 22.6248 8.66669C22.6248 9.00835 22.3415 9.29169 21.9998 9.29169C21.4248 9.29169 20.9582 9.75835 20.9582 10.3334V24.5C20.9582 25.0584 20.6498 25.5584 20.1498 25.8084C19.6498 26.0584 19.0665 26.0084 18.6248 25.675L17.1998 24.6084C17.1165 24.5417 16.9998 24.5584 16.9332 24.625L15.5332 26.025C15.2582 26.2917 14.8915 26.4417 14.4998 26.4417ZM11.9248 23.3084C12.3082 23.3084 12.6832 23.45 12.9665 23.7417L14.3498 25.1334C14.3998 25.1834 14.4665 25.1917 14.4998 25.1917C14.5332 25.1917 14.5998 25.1834 14.6498 25.1334L16.0498 23.7334C16.5665 23.2167 17.3832 23.1667 17.9582 23.6084L19.3748 24.6667C19.4665 24.7334 19.5498 24.7084 19.5915 24.6834C19.6332 24.6584 19.7082 24.6084 19.7082 24.5V10.3334C19.7082 9.95835 19.7998 9.60002 19.9582 9.29169H11.9998C10.1498 9.29169 9.2915 10.15 9.2915 12V24.5C9.2915 24.6167 9.3665 24.6667 9.40817 24.6917C9.45817 24.7167 9.5415 24.7334 9.62484 24.6667L11.0498 23.6C11.3082 23.4084 11.6165 23.3084 11.9248 23.3084Z" fill="#FF6B2C"/>
<path d="M17 18.4667H14.5C14.1583 18.4667 13.875 18.1833 13.875 17.8417C13.875 17.5 14.1583 17.2167 14.5 17.2167H17C17.3417 17.2167 17.625 17.5 17.625 17.8417C17.625 18.1833 17.3417 18.4667 17 18.4667Z" fill="#FF6B2C"/>
<path d="M17 15.1334H14.5C14.1583 15.1334 13.875 14.85 13.875 14.5084C13.875 14.1667 14.1583 13.8834 14.5 13.8834H17C17.3417 13.8834 17.625 14.1667 17.625 14.5084C17.625 14.85 17.3417 15.1334 17 15.1334Z" fill="#FF6B2C"/>
<path d="M11.9749 15.3417C11.5166 15.3417 11.1416 14.9667 11.1416 14.5083C11.1416 14.05 11.5166 13.675 11.9749 13.675C12.4333 13.675 12.8083 14.05 12.8083 14.5083C12.8083 14.9667 12.4333 15.3417 11.9749 15.3417Z" fill="#FF6B2C"/>
<path d="M11.9749 18.675C11.5166 18.675 11.1416 18.3 11.1416 17.8417C11.1416 17.3834 11.5166 17.0084 11.9749 17.0084C12.4333 17.0084 12.8083 17.3834 12.8083 17.8417C12.8083 18.3 12.4333 18.675 11.9749 18.675Z" fill="#FF6B2C"/>
</svg>
