<svg width="16" height="16" viewBox="0 0 16 16" fill="none" xmlns="http://www.w3.org/2000/svg">
<path d="M8.5935 3.92H3.40683C2.26683 3.92 1.3335 4.85333 1.3335 5.99333V13.5667C1.3335 14.5333 2.02683 14.9467 2.8735 14.4733L5.4935 13.0133C5.7735 12.86 6.22683 12.86 6.50016 13.0133L9.12016 14.4733C9.9735 14.94 10.6668 14.5333 10.6668 13.5667V5.99333C10.6668 4.85333 9.7335 3.92 8.5935 3.92Z" fill="#FF6B2C"/>
<path d="M14.6669 3.40666V10.98C14.6669 11.9467 13.9736 12.3533 13.1269 11.8867L11.8402 11.1667C11.7336 11.1067 11.6669 10.9933 11.6669 10.8733V5.99333C11.6669 4.29999 10.2869 2.92 8.59355 2.92H5.88022C5.63355 2.92 5.46022 2.65999 5.57355 2.44666C5.92022 1.78666 6.61355 1.33333 7.40689 1.33333H12.5936C13.7336 1.33333 14.6669 2.26666 14.6669 3.40666Z" fill="#FF6B2C"/>
</svg>
