<svg width="21" height="20" viewBox="0 0 21 20" fill="none" xmlns="http://www.w3.org/2000/svg">
<path d="M3.55016 18.9583C3.25016 18.9583 2.95849 18.8833 2.70849 18.7333C2.15015 18.4083 1.8335 17.7583 1.8335 16.9499V7.48328C1.8335 5.70828 3.27515 4.2666 5.05015 4.2666H11.5335C13.3085 4.2666 14.7502 5.70828 14.7502 7.48328V16.9499C14.7502 17.7583 14.4335 18.4 13.8752 18.7333C13.3168 19.0583 12.6002 19.0249 11.8918 18.6333L8.61684 16.8083C8.45851 16.7166 8.12515 16.7166 7.96682 16.8083L4.69182 18.6333C4.30849 18.8499 3.91683 18.9583 3.55016 18.9583ZM5.05849 5.52494C3.97516 5.52494 3.09184 6.40826 3.09184 7.4916V16.9583C3.09184 17.2999 3.19184 17.5666 3.35017 17.6583C3.5085 17.7499 3.79185 17.7083 4.09185 17.5416L7.36684 15.7166C7.90017 15.4249 8.70017 15.4249 9.2335 15.7166L12.5085 17.5416C12.8085 17.7083 13.0835 17.7499 13.2502 17.6583C13.4085 17.5666 13.5085 17.2999 13.5085 16.9583V7.4916C13.5085 6.40826 12.6252 5.52494 11.5418 5.52494H5.05849Z" fill="#344054"/>
<path d="M13.0413 18.9583C12.6746 18.9583 12.2913 18.85 11.8996 18.6416L8.62465 16.8166C8.46632 16.7333 8.12462 16.7333 7.96629 16.8166L4.69964 18.6416C3.9913 19.0333 3.2663 19.0666 2.7163 18.7416C2.15797 18.4166 1.84131 17.7666 1.84131 16.9666V7.49998C1.84131 5.72498 3.28296 4.28333 5.05796 4.28333H11.5413C13.3163 4.28333 14.758 5.72498 14.758 7.49998V16.9666C14.758 17.7666 14.4413 18.4166 13.883 18.7416C13.633 18.8833 13.3496 18.9583 13.0413 18.9583ZM8.29964 15.5C8.63298 15.5 8.95797 15.575 9.23297 15.725L12.508 17.55C12.808 17.7166 13.0913 17.7583 13.2496 17.6583C13.408 17.5666 13.508 17.3 13.508 16.9583V7.49164C13.508 6.4083 12.6247 5.52498 11.5413 5.52498H5.05796C3.97463 5.52498 3.09131 6.4083 3.09131 7.49164V16.9583C3.09131 17.3 3.19131 17.5666 3.34964 17.6583C3.50797 17.75 3.79132 17.7083 4.09132 17.5416L7.36631 15.7166C7.63298 15.575 7.96631 15.5 8.29964 15.5Z" fill="#344054"/>
<path d="M18.0413 15.725C17.6746 15.725 17.2913 15.6167 16.8996 15.4084L13.8246 13.6917C13.6246 13.5834 13.508 13.375 13.508 13.15V7.50004C13.508 6.41671 12.6247 5.53339 11.5413 5.53339H7.46631C7.12464 5.53339 6.84131 5.25005 6.84131 4.90839V4.2667C6.84131 2.4917 8.28296 1.05005 10.058 1.05005H16.5413C18.3163 1.05005 19.758 2.4917 19.758 4.2667V13.7334C19.758 14.5334 19.4413 15.1834 18.883 15.5084C18.633 15.65 18.3496 15.725 18.0413 15.725ZM14.758 12.775L17.508 14.3167C17.808 14.4834 18.083 14.525 18.2496 14.425C18.4163 14.325 18.508 14.0667 18.508 13.725V4.25836C18.508 3.17503 17.6247 2.29171 16.5413 2.29171H10.058C8.97463 2.29171 8.09131 3.17503 8.09131 4.25836V4.27505H11.5413C13.3163 4.27505 14.758 5.7167 14.758 7.4917V12.775V12.775Z" fill="#344054"/>
</svg>
