<svg width="21" height="20" viewBox="0 0 21 20" fill="none" xmlns="http://www.w3.org/2000/svg">
<path d="M9.78324 18.125C5.07491 18.125 1.24158 14.2917 1.24158 9.58335C1.24158 4.87502 5.07491 1.04169 9.78324 1.04169C14.4916 1.04169 18.3249 4.87502 18.3249 9.58335C18.3249 14.2917 14.4916 18.125 9.78324 18.125ZM9.78324 2.29169C5.75824 2.29169 2.49158 5.56669 2.49158 9.58335C2.49158 13.6 5.75824 16.875 9.78324 16.875C13.8082 16.875 17.0749 13.6 17.0749 9.58335C17.0749 5.56669 13.8082 2.29169 9.78324 2.29169Z" fill="#292D32"/>
<path d="M18.5332 18.9583C18.3749 18.9583 18.2166 18.9 18.0916 18.775L16.4249 17.1083C16.1832 16.8667 16.1832 16.4667 16.4249 16.225C16.6666 15.9833 17.0666 15.9833 17.3082 16.225L18.9749 17.8917C19.2166 18.1333 19.2166 18.5333 18.9749 18.775C18.8499 18.9 18.6916 18.9583 18.5332 18.9583Z" fill="#292D32"/>
</svg>
