<svg width="21" height="20" viewBox="0 0 21 20" fill="none" xmlns="http://www.w3.org/2000/svg">
<path d="M10.6 13.125C8.87498 13.125 7.47498 11.725 7.47498 10C7.47498 8.275 8.87498 6.875 10.6 6.875C12.325 6.875 13.725 8.275 13.725 10C13.725 11.725 12.325 13.125 10.6 13.125ZM10.6 8.125C9.56664 8.125 8.72498 8.96667 8.72498 10C8.72498 11.0333 9.56664 11.875 10.6 11.875C11.6333 11.875 12.475 11.0333 12.475 10C12.475 8.96667 11.6333 8.125 10.6 8.125Z" fill="#292D32"/>
<path d="M13.2749 18.4917C13.0999 18.4917 12.9249 18.4667 12.7499 18.425C12.2333 18.2833 11.7999 17.9583 11.5249 17.5L11.4249 17.3333C10.9333 16.4833 10.2583 16.4833 9.7666 17.3333L9.67494 17.4917C9.39994 17.9583 8.9666 18.2917 8.44994 18.425C7.92494 18.5667 7.38327 18.4917 6.92494 18.2167L5.4916 17.3917C4.98327 17.1 4.6166 16.625 4.45827 16.05C4.30827 15.475 4.38327 14.8833 4.67493 14.375C4.9166 13.95 4.98327 13.5667 4.8416 13.325C4.69994 13.0833 4.3416 12.9417 3.84994 12.9417C2.63327 12.9417 1.6416 11.95 1.6416 10.7333V9.26668C1.6416 8.05001 2.63327 7.05835 3.84994 7.05835C4.3416 7.05835 4.69994 6.91668 4.8416 6.67502C4.98327 6.43335 4.92493 6.05002 4.67493 5.62502C4.38327 5.11668 4.30827 4.51668 4.45827 3.95001C4.60827 3.37501 4.97494 2.90001 5.4916 2.60835L6.93327 1.78335C7.87494 1.22501 9.1166 1.55001 9.68327 2.50835L9.78327 2.67501C10.2749 3.52501 10.9499 3.52501 11.4416 2.67501L11.5333 2.51668C12.0999 1.55001 13.3416 1.22501 14.2916 1.79168L15.7249 2.61668C16.2333 2.90835 16.5999 3.38335 16.7583 3.95835C16.9083 4.53335 16.8333 5.12502 16.5416 5.63335C16.2999 6.05835 16.2333 6.44168 16.3749 6.68335C16.5166 6.92502 16.8749 7.06668 17.3666 7.06668C18.5833 7.06668 19.5749 8.05835 19.5749 9.27501V10.7417C19.5749 11.9583 18.5833 12.95 17.3666 12.95C16.8749 12.95 16.5166 13.0917 16.3749 13.3333C16.2333 13.575 16.2916 13.9583 16.5416 14.3833C16.8333 14.8917 16.9166 15.4917 16.7583 16.0583C16.6083 16.6333 16.2416 17.1083 15.7249 17.4L14.2833 18.225C13.9666 18.4 13.6249 18.4917 13.2749 18.4917ZM10.5999 15.4083C11.3416 15.4083 12.0333 15.875 12.5083 16.7L12.5999 16.8583C12.6999 17.0333 12.8666 17.1583 13.0666 17.2083C13.2666 17.2583 13.4666 17.2333 13.6333 17.1333L15.0749 16.3C15.2916 16.175 15.4583 15.9667 15.5249 15.7167C15.5916 15.4667 15.5583 15.2083 15.4333 14.9917C14.9583 14.175 14.8999 13.3333 15.2666 12.6917C15.6333 12.05 16.3916 11.6833 17.3416 11.6833C17.8749 11.6833 18.2999 11.2583 18.2999 10.725V9.25835C18.2999 8.73335 17.8749 8.30001 17.3416 8.30001C16.3916 8.30001 15.6333 7.93335 15.2666 7.29168C14.8999 6.65002 14.9583 5.80835 15.4333 4.99168C15.5583 4.77501 15.5916 4.51668 15.5249 4.26668C15.4583 4.01668 15.2999 3.81668 15.0833 3.68335L13.6416 2.85835C13.2833 2.64168 12.8083 2.76668 12.5916 3.13335L12.4999 3.29168C12.0249 4.11668 11.3333 4.58335 10.5916 4.58335C9.84994 4.58335 9.15827 4.11668 8.68327 3.29168L8.5916 3.12501C8.38327 2.77501 7.9166 2.65001 7.55827 2.85835L6.1166 3.69168C5.89994 3.81668 5.73327 4.02502 5.6666 4.27502C5.59994 4.52502 5.63327 4.78335 5.75827 5.00002C6.23327 5.81668 6.2916 6.65835 5.92493 7.30002C5.55827 7.94168 4.79994 8.30835 3.84994 8.30835C3.3166 8.30835 2.8916 8.73335 2.8916 9.26668V10.7333C2.8916 11.2583 3.3166 11.6917 3.84994 11.6917C4.79994 11.6917 5.55827 12.0583 5.92493 12.7C6.2916 13.3417 6.23327 14.1833 5.75827 15C5.63327 15.2167 5.59994 15.475 5.6666 15.725C5.73327 15.975 5.8916 16.175 6.10827 16.3083L7.54994 17.1333C7.72494 17.2417 7.93327 17.2667 8.12494 17.2167C8.32493 17.1667 8.4916 17.0333 8.59994 16.8583L8.6916 16.7C9.1666 15.8833 9.85827 15.4083 10.5999 15.4083Z" fill="#292D32"/>
</svg>
